<svg xmlns="http://www.w3.org/2000/svg" xmlns:xlink="http://www.w3.org/1999/xlink" version="1.1" id="Your_Icon" x="0px" y="0px" viewBox="5.0 -10.0 100.0 135.0" enable-background="new 0 0 100 100" xml:space="preserve" height="40px" width="40px">
<g>
	<g>
		<g>
			<g>
			</g>
		</g>
		<g>
		</g>
	</g>
</g>
<g>
	<path d="M12.5,27.5h75c4.143,0,7.5-3.358,7.5-7.5s-3.357-7.5-7.5-7.5h-75C8.358,12.5,5,15.858,5,20S8.358,27.5,12.5,27.5z"/>
	<path d="M87.5,42.5h-75C8.358,42.5,5,45.858,5,50c0,4.143,3.358,7.5,7.5,7.5h75c4.143,0,7.5-3.357,7.5-7.5   C95,45.858,91.643,42.5,87.5,42.5z"/>
	<path d="M87.5,72.5h-75C8.358,72.5,5,75.857,5,80s3.358,7.5,7.5,7.5h75c4.143,0,7.5-3.357,7.5-7.5S91.643,72.5,87.5,72.5z"/>
</g>
</svg>