<svg xmlns="http://www.w3.org/2000/svg" xmlns:xlink="http://www.w3.org/1999/xlink" version="1.1" id="Layer_1" x="0px" y="0px" width="275px" height="300px" viewBox="3.75 -7.5 75.0 101.25" enable-background="new 0 0 75 75" xml:space="preserve">
<path d="M14.228,43.698c0,0.903-0.004,1.806,0.001,2.709c0.002,0.466,0.038,0.497,0.51,0.552c0.493,0.055,0.986,0.107,1.48,0.154  c0.133,0.013,0.272,0.009,0.404-0.01c1.77-0.262,3.541-0.509,5.305-0.797c0.483-0.08,0.948-0.277,1.419-0.428  c0.28-0.088,0.406-0.304,0.421-0.581c0.016-0.284,0.018-0.569,0.006-0.854c-0.083-2.062-0.168-4.118-0.257-6.178  c-0.053-1.232-0.111-2.465-0.169-3.696c-0.007-0.165-0.045-0.328-0.057-0.493c-0.028-0.404-0.239-0.664-0.604-0.822  c-0.598-0.257-0.771-0.776-0.775-1.361c-0.005-0.571,0.17-1.077,0.748-1.329c0.298-0.129,0.451-0.337,0.445-0.661  c-0.021-1.126-0.028-2.254-0.062-3.38c-0.03-0.977-0.086-1.953-0.137-2.93c-0.084-1.651-0.186-3.303-0.253-4.956  c-0.025-0.613,0.001-1.231,0.051-1.844c0.024-0.299-0.029-0.464-0.317-0.597c-2.32-1.074-3.86-3.738-3.633-6.28  c0.029-0.327,0.095-0.66,0.206-0.968c0.495-1.381,1.164-2.67,2.063-3.839c1.249-1.625,2.904-2.423,4.936-2.496  c1.522-0.054,3.003,0.137,4.424,0.699c2.346,0.927,4.787,1.507,7.253,1.986c2.375,0.46,4.758,0.895,7.141,1.319  c0.543,0.098,1.104,0.11,1.656,0.154C47.917,6.89,49.4,7.02,50.885,7.115c1.022,0.066,2.036,0.034,2.98-0.477  c0.434-0.234,0.9-0.419,1.375-0.562c0.406-0.123,0.846-0.111,1.201,0.178c0.181,0.146,0.338,0.144,0.541,0.091  C57.462,6.22,57.945,6.111,58.428,6c0.291-0.066,0.537,0.005,0.717,0.256c0.183,0.256,0.14,0.523-0.011,0.763  c-0.116,0.188-0.278,0.353-0.44,0.507c-1.19,1.149-2.395,2.284-3.571,3.445c-0.296,0.292-0.495,0.676-0.759,1.003  c-0.656,0.821-1.299,1.655-1.998,2.44c-0.333,0.375-0.77,0.661-1.178,0.961c-0.15,0.111-0.203,0.198-0.207,0.393  c-0.015,1.171-0.021,2.344-0.103,3.512c-0.14,2.01-0.339,4.016-0.495,6.024c-0.094,1.2-0.15,2.401-0.236,3.602  c-0.033,0.451,0.045,0.805,0.478,1.071c0.635,0.39,0.823,1.419,0.401,2.1c-0.162,0.263-0.422,0.463-0.61,0.712  c-0.149,0.195-0.313,0.41-0.363,0.639c-0.079,0.364-0.079,0.747-0.097,1.123c-0.121,2.811-0.238,5.619-0.357,8.432  c-0.027,0.632-0.068,1.261-0.096,1.893c-0.025,0.562,0.227,0.797,0.792,0.758c0.091-0.007,0.187-0.035,0.271-0.015  c0.895,0.215,1.802,0.006,2.695,0.08c0.819,0.069,1.631,0.245,2.444,0.378c0.134,0.021,0.271,0.035,0.397,0.074  c0.262,0.074,0.469,0.02,0.644-0.193c0.212-0.262,0.462-0.327,0.801-0.199c0.44,0.166,0.714,0.016,0.845-0.449  c0.133-0.479,0.385-0.767,0.912-0.762c0.131,0.002,0.266-0.05,0.395-0.089c0.266-0.082,0.525-0.228,0.799-0.25  c1.123-0.091,2.252-0.121,3.361,0.117c0.578,0.125,0.746,0.394,0.631,0.983c-0.186,0.93-0.4,1.853-0.598,2.779  c-0.061,0.277-0.119,0.557-0.158,0.838c-0.103,0.723-0.285,0.932-1.01,0.936c-0.627,0.004-1.257-0.066-1.883-0.12  c-0.296-0.026-0.511-0.181-0.564-0.496c-0.032-0.201-0.155-0.261-0.349-0.269c-0.563-0.025-1.047-0.221-1.419-0.675  c-0.101-0.118-0.302-0.187-0.466-0.216c-0.34-0.062-0.69-0.051-1.026-0.123c-0.627-0.137-1.23,0.008-1.828,0.146  c-0.752,0.178-1.506,0.267-2.279,0.254c-0.434-0.008-0.87,0.031-1.305,0.066c-0.422,0.035-0.77,0.219-1.049,0.549  c-0.914,1.088-1.283,2.371-1.318,3.758c-0.027,1.022-0.002,2.047-0.012,3.068c-0.019,1.784-0.353,3.526-0.673,5.273  c-0.315,1.714-0.581,3.438-0.877,5.154c-0.056,0.324-0.151,0.644-0.233,0.963c-0.062,0.242-0.219,0.508,0.009,0.72  c0.216,0.201,0.454,0.019,0.675-0.058c0.413-0.141,0.818-0.297,1.234-0.426c0.521-0.16,1.041-0.121,1.56,0.02  c0.453,0.121,0.827,0.361,1.093,0.751c0.389,0.569,0.604,1.215,0.688,1.891c0.075,0.609-0.455,1.179-1.103,1.171  c-0.916-0.009-1.834-0.044-2.748-0.108c-1.216-0.085-2.427-0.208-3.64-0.322c-0.433-0.041-0.538-0.11-0.569-0.546  c-0.076-1.11-0.09-2.225-0.178-3.332c-0.123-1.559-0.255-3.117-0.454-4.665c-0.118-0.929-0.509-1.763-1.274-2.369  c-0.36-0.285-0.752-0.481-1.23-0.483c-2.919-0.004-5.839,0.002-8.758-0.037c-0.832-0.01-1.32,0.358-1.638,1.08  c-0.471,1.072-0.713,2.211-0.842,3.355c-0.157,1.403-0.181,2.819-0.277,4.229c-0.047,0.688-0.094,1.381-0.201,2.062  c-0.113,0.721-0.333,0.896-1.065,0.88c-1.729-0.037-3.457-0.103-5.186-0.157c-0.421-0.013-0.843-0.02-1.263-0.041  c-0.415-0.022-0.525-0.14-0.549-0.557c-0.031-0.562,0.027-1.109,0.28-1.626c0.454-0.924,1.491-1.457,2.48-1.176  c0.601,0.17,1.159,0.485,1.743,0.721c0.183,0.073,0.388,0.095,0.583,0.138c0.02-0.199,0.096-0.412,0.049-0.596  c-0.282-1.104-0.249-2.238-0.348-3.359c-0.062-0.705-0.118-1.41-0.205-2.11c-0.119-0.952-0.4-1.854-0.966-2.644  c-0.888-1.235-1.213-2.627-1.205-4.127c0.005-0.949-0.024-1.896-0.074-2.844c-0.042-0.816-0.238-1.596-0.642-2.324  c-0.515-0.932-1.31-1.25-2.329-1.229c-1.307,0.029-2.616,0.045-3.92-0.003c-0.934-0.036-1.824,0.136-2.714,0.354  c-0.075,0.019-0.173,0.132-0.181,0.207c-0.087,0.882-0.185,1.763-0.228,2.646c-0.043,0.877-0.169,1.733-0.454,2.565  c-0.037,0.104-0.126,0.192-0.19,0.287c-0.059-0.097-0.133-0.188-0.173-0.291c-0.335-0.881-0.281-1.805-0.271-2.72  c0.009-0.767,0.044-1.532,0.077-2.299c0.011-0.257,0.011-0.439-0.333-0.513c-0.535-0.113-0.666-0.435-0.439-0.943  c0.117-0.268,0.096-0.473-0.092-0.702c-0.441-0.539-0.265-0.985,0.424-1.054c0.297-0.027,0.378-0.135,0.383-0.413  c0.026-1.503,0.064-3.007,0.103-4.511c0.007-0.285,0.041-0.569,0.048-0.854c0.006-0.269,0.138-0.38,0.396-0.37  c0.09,0.002,0.181-0.004,0.271-0.002c0.396,0.018,0.447,0.059,0.46,0.443c0.021,0.57,0.029,1.142,0.037,1.714  c0.006,0.358,0.002,0.721,0.002,1.08C14.273,43.698,14.25,43.698,14.228,43.698z M60.062,48.482  c-0.019-0.34-0.021-0.577-0.049-0.816c-0.082-0.713-0.162-1.427-0.268-2.137c-0.049-0.329-0.273-0.516-0.512-0.426  c-0.121,0.045-0.213,0.211-0.272,0.344c-0.019,0.039,0.108,0.195,0.188,0.221c0.504,0.146,0.695,0.566,0.41,1.018  c-0.144,0.226-0.136,0.396-0.004,0.614c0.248,0.411,0.229,0.607-0.108,0.903c-0.187,0.162-0.164,0.222,0.048,0.281  c0.129,0.035,0.26,0.084,0.393,0.088C59.963,48.573,60.04,48.495,60.062,48.482z M34.774,40.191  c0.023,0.307,0.399,0.471,0.399,0.471c3.738,0.822,5.901-0.973,5.901-0.973s0.213-0.039,0-0.367  c-0.211-0.329-0.447-0.117-0.447-0.117c-2.759,1.755-5.454,0.753-5.454,0.753C34.923,39.88,34.774,40.191,34.774,40.191z   M42.18,23.686c-0.557,0-1.01,0.453-1.01,1.012c0,0.558,0.453,1.01,1.01,1.01c0.561,0,1.012-0.453,1.012-1.01  C43.191,24.138,42.738,23.686,42.18,23.686z M30.659,23.92c-0.558,0-1.011,0.453-1.011,1.011c0,0.559,0.453,1.012,1.011,1.012  c0.559,0,1.011-0.453,1.011-1.012C31.67,24.373,31.218,23.92,30.659,23.92z M40.135,49.527c-0.917,0.328-2.278,0.82-2.278,0.82  c-0.024-0.209-0.59-0.281-0.845-0.281c-0.255,0-0.897-0.045-1.015,0.281c-0.017,0.047-0.024,0.104-0.027,0.166l0,0  c0,0-2.632-1.519-2.396-0.233c0.118,0.633,0.118,1.104,0.118,1.104s-0.144,0.32-0.189,0.89c-0.047,0.567,0.423,0.461,0.776,0.222  c0.353-0.24,1.931-0.868,1.931-0.868c0.017,0.043,0.032,0.076,0.044,0.1c0.094,0.176,0.047,0.34,0.756,0.239  c0.708-0.099,0.723-0.181,0.845-0.438c0.011-0.026,0.021-0.059,0.028-0.094l0,0c0,0,1.756,0.728,2.346,0.728  c0.586,0,0.047-0.938,0-1.247C40.184,50.607,41.053,49.197,40.135,49.527z"/></svg>