<svg xmlns="http://www.w3.org/2000/svg"><symbol viewBox="2.83465 -5.6693 56.693 76.53555" id="launch"><title>launch</title><path d="M30.503 42.734c.333.446.54 1.035.54 1.77 0 .033-.015.068-.017.1-.088 1.766-2.547 4.137-2.547 4.137s-2.46-2.37-2.548-4.136c-.002-.032-.016-.067-.016-.1 0-.736.206-1.324.54-1.77-1.21.613-1.952 1.794-1.952 3.33 0 2.208 3.168 7.373 3.53 7.955l.445.716.445-.717c.36-.583 3.53-5.748 3.53-7.955 0-1.536-.744-2.718-1.952-3.33zM28.477 39.51c-1.19 0-2.377-.085-3.556-.242-.425-.057-.85-.12-1.275-.198.235.765.514 1.52.856 2.252l.117.25.267.066c.807.202 1.632.31 2.462.375.377.03.754.07 1.133.07s.754-.04 1.132-.07c.83-.064 1.656-.172 2.463-.375l.267-.067.116-.25c.34-.733.62-1.487.855-2.25-.423.076-.85.14-1.275.196-1.18.158-2.37.243-3.56.243zM38.95 26.25c-.03.62-.082 1.235-.15 1.848-.34 3.02-1.126 5.966-2.336 8.806-.142.334-.28.668-.433 1l-.03.066 6.27 1.878v-8.646l-3.32-4.95zM20.494 36.904c-1.21-2.84-1.998-5.787-2.336-8.807-.068-.613-.12-1.23-.15-1.848l-3.32 4.953v8.646l6.272-1.88-.032-.067c-.155-.33-.292-.666-.434-1zM34.344 10.12c-2.086-3.805-4.4-6.157-5.218-6.92-.083-.803-.258-1.415-.473-1.635-.02-.022-.042-.04-.064-.055l-.11-.094-.11.094c-.023.014-.044.033-.065.055-.215.22-.39.832-.473 1.634-.818.764-3.13 3.115-5.218 6.92 3.878-.647 7.85-.647 11.73 0zM28.48 18.762c-1.865 0-3.38 1.517-3.38 3.38s1.516 3.38 3.38 3.38 3.38-1.517 3.38-3.38-1.518-3.38-3.38-3.38z"/><path d="M35.195 11.78c-.104-.22-.21-.43-.317-.642-4.222-.79-8.578-.79-12.8 0-.105.212-.213.42-.316.64-1.91 4.04-2.878 8.353-2.878 12.82 0 4.47.97 8.814 2.88 12.916l.106.226.243.06c2.078.523 4.22.787 6.364.787 2.146 0 4.29-.265 6.37-.787l.242-.06.104-.227c1.91-4.1 2.88-8.444 2.88-12.915 0-4.467-.97-8.78-2.88-12.82zM28.48 27.503c-2.958 0-5.363-2.406-5.363-5.362s2.405-5.362 5.362-5.362 5.36 2.405 5.36 5.362-2.405 5.362-5.36 5.362z"/></symbol><symbol viewBox="5.0 -10.0 100.0 135.0" id="menu"><title>menu</title><g><path d="M12.5 27.5h75c4.143 0 7.5-3.358 7.5-7.5s-3.357-7.5-7.5-7.5h-75C8.358 12.5 5 15.858 5 20s3.358 7.5 7.5 7.5zM87.5 42.5h-75C8.358 42.5 5 45.858 5 50c0 4.143 3.358 7.5 7.5 7.5h75c4.143 0 7.5-3.357 7.5-7.5 0-4.142-3.357-7.5-7.5-7.5zM87.5 72.5h-75C8.358 72.5 5 75.857 5 80s3.358 7.5 7.5 7.5h75c4.143 0 7.5-3.357 7.5-7.5s-3.357-7.5-7.5-7.5z"/></g></symbol><symbol viewBox="2.0 -4.0 40.0 54.0" id="more"><title>more</title><path fill-rule="evenodd" clip-rule="evenodd" d="M28.1 17c-1.6 0-2.9 1.3-2.9 3s1.3 3 2.9 3c1.6 0 2.9-1.3 2.9-3s-1.3-3-2.9-3zM20 17c-1.6 0-2.9 1.3-2.9 3s1.3 3 2.9 3c1.6 0 2.9-1.3 2.9-3s-1.3-3-2.9-3zm-8.1 0C10.3 17 9 18.3 9 20s1.3 3 2.9 3c1.6 0 2.9-1.3 2.9-3s-1.3-3-2.9-3z"/></symbol><symbol viewBox="3.75 -7.5 75.0 101.25" id="person"><title>person</title><path d="M14.228 43.698c0 .903-.004 1.806 0 2.71.003.465.04.496.51.55.494.056.987.108 1.48.155.134.013.273.01.405-.01 1.77-.262 3.54-.51 5.305-.797.483-.08.948-.277 1.42-.428.28-.088.405-.304.42-.58.016-.285.018-.57.006-.855-.083-2.062-.168-4.118-.257-6.178-.053-1.232-.11-2.465-.17-3.696-.006-.166-.044-.33-.056-.494-.027-.404-.238-.664-.603-.822-.598-.257-.77-.776-.775-1.36-.005-.572.17-1.078.748-1.33.298-.13.45-.337.445-.66-.02-1.127-.028-2.255-.062-3.38-.03-.978-.086-1.954-.137-2.93-.084-1.652-.186-3.304-.253-4.957-.025-.613 0-1.23.05-1.844.025-.3-.028-.464-.316-.597-2.32-1.074-3.86-3.738-3.633-6.28.03-.327.095-.66.206-.968.495-1.38 1.164-2.67 2.063-3.84 1.25-1.624 2.904-2.422 4.936-2.495 1.52-.054 3.002.137 4.423.7 2.346.926 4.787 1.506 7.253 1.985 2.375.46 4.758.895 7.14 1.32.544.097 1.105.11 1.657.153 1.484.12 2.967.25 4.452.345 1.022.066 2.036.034 2.98-.477.434-.234.9-.42 1.375-.562.406-.123.846-.11 1.2.178.182.146.34.144.542.09.48-.124.963-.233 1.446-.344.29-.066.537.005.717.256.183.256.14.523-.01.763-.117.187-.28.352-.44.506-1.19 1.15-2.396 2.284-3.572 3.445-.296.293-.495.677-.76 1.004-.655.82-1.298 1.655-1.997 2.44-.333.375-.77.66-1.178.96-.15.112-.203.2-.207.394-.014 1.17-.02 2.344-.102 3.512-.14 2.01-.34 4.016-.495 6.024-.094 1.2-.15 2.4-.236 3.602-.033.45.045.805.478 1.07.635.39.823 1.42.4 2.1-.16.264-.42.464-.61.713-.148.194-.312.41-.362.638-.08.364-.08.747-.097 1.123l-.357 8.433c-.028.632-.07 1.26-.097 1.893-.025.562.227.797.792.758.09-.007.187-.035.27-.015.896.214 1.803.005 2.696.08.82.068 1.632.244 2.445.377.134.02.27.035.397.074.262.075.47.02.644-.192.212-.262.462-.327.8-.2.44.167.715.017.846-.448.133-.48.385-.767.912-.762.13.002.266-.05.395-.09.265-.08.524-.227.798-.25 1.123-.09 2.252-.12 3.36.118.58.125.747.394.632.983-.186.93-.4 1.852-.598 2.778-.06.277-.12.557-.158.838-.103.723-.285.932-1.01.936-.627.004-1.257-.066-1.883-.12-.295-.026-.51-.18-.563-.496-.032-.2-.155-.26-.35-.27-.562-.024-1.046-.22-1.418-.674-.102-.118-.303-.187-.467-.216-.34-.062-.69-.05-1.026-.123-.627-.137-1.23.008-1.828.146-.753.177-1.507.266-2.28.253-.434-.008-.87.03-1.305.066-.422.034-.77.218-1.05.548-.913 1.088-1.282 2.37-1.317 3.758-.027 1.022-.002 2.047-.012 3.068-.02 1.784-.353 3.526-.673 5.273-.315 1.714-.58 3.438-.877 5.154-.056.325-.15.645-.233.964-.062.242-.22.508.01.72.215.2.453.02.674-.058.413-.14.818-.297 1.234-.426.522-.16 1.042-.12 1.56.02.454.12.828.36 1.094.75.39.57.604 1.216.688 1.892.075.61-.455 1.18-1.103 1.17-.917-.008-1.835-.043-2.75-.107-1.215-.085-2.426-.208-3.64-.322-.432-.04-.537-.11-.568-.546-.076-1.11-.09-2.225-.178-3.332-.123-1.56-.255-3.117-.454-4.665-.118-.93-.51-1.763-1.274-2.37-.36-.284-.752-.48-1.23-.482-2.92-.004-5.84.002-8.758-.037-.832-.01-1.32.36-1.638 1.08-.47 1.073-.713 2.212-.842 3.356-.157 1.403-.18 2.82-.277 4.23-.046.687-.093 1.38-.2 2.06-.113.722-.333.897-1.065.88-1.73-.036-3.457-.102-5.186-.156-.422-.013-.844-.02-1.264-.04-.415-.023-.525-.14-.55-.558-.03-.562.028-1.11.28-1.626.455-.924 1.492-1.457 2.48-1.176.602.17 1.16.485 1.744.72.183.074.388.096.583.14.02-.2.096-.413.05-.597-.283-1.104-.25-2.238-.35-3.36-.06-.704-.117-1.41-.204-2.11-.12-.95-.4-1.853-.967-2.643-.888-1.235-1.213-2.627-1.205-4.127.005-.95-.024-1.896-.074-2.844-.042-.817-.238-1.597-.642-2.325-.515-.932-1.31-1.25-2.33-1.23-1.306.03-2.615.046-3.92-.002-.933-.036-1.823.136-2.713.354-.076.02-.174.132-.182.207-.087.882-.185 1.763-.228 2.646-.043.877-.17 1.733-.454 2.565-.037.104-.126.192-.19.287-.06-.097-.133-.188-.173-.29-.335-.882-.28-1.806-.27-2.72.008-.768.043-1.533.076-2.3.01-.257.01-.44-.334-.513-.535-.114-.666-.436-.44-.944.118-.268.097-.473-.09-.702-.442-.54-.266-.985.423-1.054.296-.027.377-.135.382-.413.026-1.503.064-3.007.103-4.51.007-.286.04-.57.048-.855.006-.27.138-.38.396-.37.09.002.18-.004.27-.002.396.018.447.06.46.443.02.57.03 1.142.037 1.714.006.358.002.72.002 1.08h-.072zm45.834 4.784c-.02-.34-.02-.577-.05-.816-.08-.713-.16-1.427-.267-2.137-.05-.33-.273-.517-.512-.427-.12.045-.213.21-.272.344-.018.04.11.195.19.22.503.147.694.567.41 1.02-.145.225-.137.395-.005.613.248.41.23.607-.108.903-.187.162-.164.222.048.28.13.036.26.085.393.09.075 0 .152-.078.174-.09zm-25.288-8.29c.023.306.4.47.4.47 3.737.822 5.9-.973 5.9-.973s.213-.04 0-.368c-.21-.33-.447-.117-.447-.117-2.76 1.755-5.454.753-5.454.753-.25-.078-.4.233-.4.233zm7.406-16.506c-.557 0-1.01.453-1.01 1.012 0 .558.453 1.01 1.01 1.01.56 0 1.012-.453 1.012-1.01 0-.56-.454-1.012-1.012-1.012zm-11.52.234c-.56 0-1.012.453-1.012 1.01 0 .56.453 1.013 1.01 1.013.56 0 1.012-.453 1.012-1.012 0-.557-.452-1.01-1.01-1.01zm9.475 25.607c-.917.328-2.278.82-2.278.82-.024-.21-.59-.28-.845-.28s-.897-.046-1.015.28c-.017.047-.024.104-.027.166 0 0-2.632-1.52-2.396-.233.118.633.118 1.104.118 1.104s-.144.32-.19.89c-.046.567.424.46.777.222.352-.24 1.93-.868 1.93-.868.017.043.032.076.044.1.094.176.047.34.756.24.708-.1.723-.182.845-.44.01-.025.02-.058.028-.093 0 0 1.756.728 2.346.728.585 0 .046-.938 0-1.247-.046-.31.823-1.72-.095-1.39z"/></symbol><symbol viewBox="5.0 -10.0 100.0 135.0" id="settings"><title>settings</title><path d="M51.394 59.032s2 5.376 1.48 5.376-3.657 4.668-3.657 4.668l4.176 6.565 6.955-2.762 3.306 2.763.523 6.05 8.17 1.213 2.44-5.356 3.65-.874L84 79.79l6.09-4.148-1.74-5.707 1.74-3.448 6.608-1.39 1.39-8.288-6.085-2.764-.523-3.98 3.302-4.832-4.864-7.006-6.085 2.338-3.48-2.338-.873-5.44-7.997-1.03-2.783 5.356-3.825 1.114-4.87-3.37-6.437 3.37 1.893 5.793-2.38 4.004-5.943.988-.87 8.312 5.127 1.708zM72.18 46.146c6.474 0 11.74 5.002 11.74 11.178 0 6.18-5.267 11.178-11.74 11.178-6.49 0-11.742-4.998-11.742-11.178 0-6.176 5.25-11.178 11.74-11.178zm-32.516 36.16l4.69-5.433-2.876-4.797 2.153-3.113L48.64 66l-1.46-6.413-5.224-1.36-1.48-3.287 2.087-5.086-5.45-4.88-4.306 2.613-3.68-1.004-1.977-5.562-7.746.788-1.415 5.13-3.078 1.994-5.526-2.558-4.95 5.868L7.375 57.6l-1.378 3.235-5 2.18.71 6.633 5.46 1.987 1.554 3.022L6.43 79.5l5.676 4.902 4.522-3.223 3.877.637 2.188 6.42 7.04-1.013s1.395-4.912 1.09-5.273c-.31-.357 3.97-1.916 3.97-1.916l4.87 2.27zm-8.38-9.74c-4.3 3.65-10.894 3-14.728-1.455-3.833-4.462-3.45-11.03.847-14.68 4.298-3.656 10.895-3 14.728 1.456 3.83 4.456 3.453 11.033-.845 14.68zM59.558 20.5l-2.37-5.612-4.766.354-1.56-2.803-.367-4.91-5.463-1.32-3.016 3.427-3.08-.133L35.838 6l-5.803 2.268.37 4.243-2.17 2.394-5-.622-2.34 6.156 3.394 3.015.355 3.074-4.038 3.207 2.598 5.96 5.22-.19 1.95 2.268-.228 4.598 5.34 1.976 3.59-3.36 2.9-.028 2.835 3.562 5.904-2.433-.748-4.624 1.952-2.688 5.738.775 1.894-5.688s-3.224-2.92-3.613-2.826c-.398.1.034-3.727.034-3.727l3.583-2.81zM48.93 23.13c1.165 4.628-1.834 9.358-6.695 10.563-4.86 1.204-9.745-1.574-10.906-6.207-1.166-4.633 1.837-9.352 6.698-10.563 4.86-1.205 9.744 1.574 10.902 6.206z"/></symbol></svg>